<svg aria-hidden="true" style="position: absolute; width: 0; height: 0; overflow: hidden;" version="1.1" xmlns="http://www.w3.org/2000/svg" xmlns:xlink="http://www.w3.org/1999/xlink">
<defs>
<symbol id="close-btn" viewBox="0 0 32 32">
<path d="M22.857 14.476v-2.286h2.286v-2.286h2.286v-2.286h2.286v-2.286h2.286v-3.048h-2.286v-2.286h-3.048v2.286h-2.286v2.286h-2.286v2.286h-2.286v2.286h-2.286v2.286h-3.048v-2.286h-2.286v-2.286h-2.286v-2.286h-2.286v-2.286h-2.286v-2.286h-3.048v2.286h-2.286v3.048h2.286v2.286h2.286v2.286h2.286v2.286h2.286v2.286h2.286v3.048h-2.286v2.286h-2.286v2.286h-2.286v2.286h-2.286v2.286h-2.286v3.048h2.286v2.286h3.048v-2.286h2.286v-2.286h2.286v-2.286h2.286v-2.286h2.286v-2.286h3.048v2.286h2.286v2.286h2.286v2.286h2.286v2.286h2.286v2.286h3.048v-2.286h2.286v-3.048h-2.286v-2.286h-2.286v-2.286h-2.286v-2.286h-2.286v-2.286h-2.286v-3.048z"></path>
</symbol>
</defs>
</svg>
