<svg aria-hidden="true" style="position:absolute;width:0;height:0;overflow:hidden" xmlns="http://www.w3.org/2000/svg"><defs><symbol id="heart" viewBox="0 0 34 32"><path d="m17.231 31.705-2.412-2.412C5.859 21.367.001 16.025.001 9.478.001 4.136 4.136.001 9.478.001c2.929 0 5.858 1.378 7.754 3.618 1.895-2.24 4.825-3.618 7.754-3.618 5.342 0 9.477 4.135 9.477 9.477 0 6.548-5.858 11.889-14.818 19.815l-2.412 2.412z"/></symbol><symbol id="github" viewBox="0 0 31 32"><path d="M10.369 24.837c0 .125-.144.225-.325.225-.206.019-.35-.081-.35-.225 0-.125.144-.225.325-.225.188-.019.35.081.35.225zm-1.944-.281c-.044.125.081.269.269.306.162.063.35 0 .387-.125s-.081-.269-.269-.325c-.162-.044-.344.019-.387.144zm2.763-.106c-.181.044-.306.163-.287.306.019.125.181.206.369.163.181-.044.306-.163.287-.288-.019-.119-.188-.2-.369-.181zM15.3.5C6.631.5 0 7.081 0 15.75c0 6.931 4.362 12.863 10.594 14.95.8.144 1.081-.35 1.081-.756 0-.387-.019-2.525-.019-3.837 0 0-4.375.938-5.294-1.863 0 0-.713-1.819-1.737-2.288 0 0-1.431-.981.1-.962 0 0 1.556.125 2.412 1.613 1.369 2.413 3.662 1.719 4.556 1.306.144-1 .55-1.694 1-2.106-3.494-.387-7.019-.894-7.019-6.906 0-1.719.475-2.581 1.475-3.681-.162-.406-.694-2.081.162-4.244 1.306-.406 4.313 1.688 4.313 1.688 1.25-.35 2.594-.531 3.925-.531s2.675.181 3.925.531c0 0 3.006-2.1 4.313-1.688.856 2.169.325 3.838.163 4.244 1 1.106 1.613 1.969 1.613 3.681 0 6.031-3.681 6.512-7.175 6.906.575.494 1.063 1.431 1.063 2.9 0 2.106-.019 4.712-.019 5.225 0 .406.288.9 1.081.756 6.25-2.075 10.488-8.006 10.488-14.938C31.001 7.081 23.97.5 15.301.5zM6.075 22.056c-.081.063-.063.206.044.325.1.1.244.144.325.063.081-.063.063-.206-.044-.325-.1-.1-.244-.144-.325-.063zM5.4 21.55c-.044.081.019.181.144.244.1.063.225.044.269-.044.044-.081-.019-.181-.144-.244-.125-.038-.225-.019-.269.044zm2.025 2.225c-.1.081-.063.269.081.387.144.144.325.163.406.063.081-.081.044-.269-.081-.387-.138-.144-.325-.163-.406-.063zm-.712-.919c-.1.063-.1.225 0 .369s.269.206.35.144c.1-.081.1-.244 0-.387-.088-.144-.25-.206-.35-.125z"/></symbol><symbol id="linkedin" viewBox="0 0 28 32"><path d="M26 2H1.994C.894 2 0 2.906 0 4.019v23.962C0 29.094.894 30 1.994 30H26c1.1 0 2-.906 2-2.019V4.019C28 2.907 27.1 2 26 2zM8.463 26h-4.15V12.637h4.156V26zM6.388 10.813a2.407 2.407 0 0 1 0-4.812 2.41 2.41 0 0 1 2.406 2.406 2.403 2.403 0 0 1-2.406 2.406zM24.019 26h-4.15v-6.5c0-1.55-.031-3.544-2.156-3.544-2.162 0-2.494 1.688-2.494 3.431V26h-4.15V12.637h3.981v1.825h.056c.556-1.05 1.912-2.156 3.931-2.156 4.2 0 4.981 2.769 4.981 6.369V26z"/></symbol></defs></svg>